<?xml version="1.0" standalone="no"?>
<!DOCTYPE svg PUBLIC "-//W3C//DTD SVG 1.1//EN" "http://www.w3.org/Graphics/SVG/1.1/DTD/svg11.dtd" >
<svg xmlns="http://www.w3.org/2000/svg">
<metadata>Generated by IcoMoon</metadata>
<defs>
<font id="icomoon" horiz-adv-x="1024">
<font-face units-per-em="1024" ascent="960" descent="-64" />
<missing-glyph horiz-adv-x="1024" />
<glyph unicode="&#x20;" horiz-adv-x="512" d="" />
<glyph unicode="&#xe900;" glyph-name="AngularLogo" d="M905.242 694.16l-384 160c-5.918 2.44-12.565 2.44-18.483 0l-383.998-160c-4.874-2.031-8.943-5.613-11.575-10.19s-3.682-9.896-2.985-15.13l64-480.002c0.516-3.887 1.978-7.595 4.259-10.786 2.28-3.196 5.309-5.781 8.821-7.531l319.998-160c3.332-1.664 7.002-2.53 10.722-2.53s7.39 0.866 10.718 2.53l320 160c3.516 1.749 6.541 4.335 8.823 7.531 2.278 3.191 3.742 6.899 4.258 10.786l64 480.002c0.695 5.234-0.354 10.552-2.982 15.13-2.633 4.577-6.703 8.159-11.575 10.19zM809.882 207.761l-297.882-148.919-297.88 148.919-60 449.159 357.88 149.080 357.76-149.080-59.878-449.159zM490.999 619.76l-160-288.001c-3.087-5.568-3.835-12.134-2.080-18.257s5.871-11.294 11.44-14.383c5.569-3.085 12.137-3.836 18.258-2.078 6.121 1.754 11.294 5.871 14.382 11.439l46.44 83.52h185.121l46.438-83.639c2.078-3.746 5.124-6.869 8.815-9.045 3.695-2.172 7.902-3.315 12.186-3.315 4.066-0.004 8.060 1.041 11.601 3.042 5.559 3.085 9.668 8.247 11.422 14.362 1.758 6.114 1.015 12.672-2.061 18.236l-160 288c-2.078 3.751-5.12 6.878-8.815 9.056-3.691 2.177-7.902 3.325-12.186 3.325-4.288 0-8.499-1.148-12.19-3.325-3.695-2.177-6.737-5.304-8.811-9.056l0.038 0.12zM577.882 440h-131.763l65.882 118.6 65.882-118.6z" />
<glyph unicode="&#xe901;" glyph-name="ArrowDown" d="M822.639 361.361l-288-288c-2.97-2.978-6.498-5.338-10.385-6.946-3.883-1.613-8.047-2.441-12.254-2.441s-8.371 0.828-12.254 2.441c-3.887 1.609-7.415 3.968-10.385 6.946l-288.001 288c-6.004 6.003-9.378 14.148-9.378 22.639s3.374 16.636 9.378 22.639c6.004 6.007 14.148 9.378 22.64 9.378s16.636-3.371 22.64-9.378l233.36-233.399v626.761c0 8.487 3.371 16.626 9.374 22.627 5.999 6.001 14.14 9.373 22.626 9.373s16.627-3.372 22.626-9.373c6.003-6.001 9.374-14.141 9.374-22.627v-626.761l233.361 233.399c6.003 6.007 14.148 9.378 22.639 9.378s16.636-3.371 22.639-9.378c6.007-6.003 9.378-14.148 9.378-22.639s-3.371-16.636-9.378-22.639z" />
<glyph unicode="&#xe902;" glyph-name="ArrowDownLeft" d="M790.639 681.36l-457.399-457.36h338.76c8.486 0 16.627-3.371 22.626-9.374 6.003-5.999 9.374-14.14 9.374-22.626s-3.371-16.627-9.374-22.626c-5.999-6.003-14.14-9.374-22.626-9.374h-416c-8.487 0-16.626 3.371-22.627 9.374-6.001 5.999-9.373 14.14-9.373 22.626v416c0 8.487 3.372 16.626 9.373 22.627s14.141 9.373 22.627 9.373c8.487 0 16.626-3.371 22.627-9.373s9.373-14.14 9.373-22.627v-338.76l457.361 457.4c2.974 2.973 6.502 5.332 10.385 6.941 3.887 1.609 8.051 2.437 12.254 2.437s8.367-0.828 12.254-2.437c3.883-1.609 7.411-3.968 10.385-6.941s5.333-6.503 6.942-10.387c1.609-3.885 2.436-8.048 2.436-12.253s-0.828-8.368-2.436-12.253c-1.609-3.884-3.968-7.414-6.942-10.387z" />
<glyph unicode="&#xe903;" glyph-name="ArrowDownRight" d="M800 608v-416c0-8.486-3.371-16.627-9.374-22.626-5.999-6.003-14.14-9.374-22.626-9.374h-416c-8.487 0-16.626 3.371-22.627 9.374-6.001 5.999-9.373 14.14-9.373 22.626s3.372 16.627 9.373 22.626c6.001 6.003 14.141 9.374 22.627 9.374h338.761l-457.4 457.36c-6.004 6.004-9.378 14.148-9.378 22.64s3.374 16.636 9.378 22.64c6.004 6.004 14.148 9.378 22.64 9.378s16.636-3.373 22.64-9.378l457.36-457.4v338.76c0 8.487 3.371 16.626 9.374 22.627 5.999 6.001 14.14 9.373 22.626 9.373s16.627-3.371 22.626-9.373c6.003-6.001 9.374-14.14 9.374-22.627z" />
<glyph unicode="&#xe904;" glyph-name="ArrowUp" d="M822.639 489.361c-2.97-2.978-6.498-5.338-10.385-6.946-3.883-1.613-8.047-2.441-12.254-2.441s-8.371 0.828-12.254 2.441c-3.887 1.609-7.415 3.968-10.385 6.946l-233.361 233.399v-626.76c0-8.486-3.371-16.627-9.374-22.626-5.999-6.003-14.14-9.374-22.626-9.374s-16.627 3.371-22.626 9.374c-6.003 5.999-9.374 14.14-9.374 22.626v626.76l-233.36-233.399c-6.004-6.007-14.149-9.378-22.64-9.378s-16.635 3.371-22.64 9.378c-6.004 6.003-9.378 14.148-9.378 22.639s3.374 16.636 9.378 22.64l288.001 288c2.97 2.975 6.498 5.335 10.385 6.946 3.883 1.61 8.047 2.439 12.254 2.439s8.371-0.829 12.254-2.439c3.887-1.61 7.415-3.971 10.385-6.946l288-288c2.978-2.971 5.338-6.499 6.946-10.386 1.613-3.883 2.441-8.047 2.441-12.254s-0.828-8.371-2.441-12.254c-1.609-3.887-3.968-7.415-6.946-10.385z" />
<glyph unicode="&#xe905;" glyph-name="ArrowUpLeft" d="M790.639 169.361c-2.97-2.978-6.498-5.338-10.385-6.946-3.883-1.613-8.047-2.441-12.254-2.441s-8.371 0.828-12.254 2.441c-3.887 1.609-7.415 3.968-10.385 6.946l-457.361 457.399v-338.76c0-8.486-3.372-16.627-9.373-22.626-6.001-6.003-14.141-9.374-22.627-9.374s-16.626 3.371-22.627 9.374c-6.001 5.999-9.373 14.14-9.373 22.626v416c0 8.487 3.372 16.626 9.373 22.627s14.141 9.373 22.627 9.373h416c8.486 0 16.627-3.372 22.626-9.373 6.003-6.001 9.374-14.141 9.374-22.627s-3.371-16.626-9.374-22.627c-5.999-6.001-14.14-9.373-22.626-9.373h-338.76l457.399-457.361c2.978-2.97 5.338-6.498 6.946-10.385 1.613-3.883 2.441-8.047 2.441-12.254s-0.828-8.371-2.441-12.254c-1.609-3.887-3.968-7.415-6.946-10.385z" />
<glyph unicode="&#xe906;" glyph-name="ArrowUpRight" d="M800 704v-416c0-8.486-3.371-16.627-9.374-22.626-5.999-6.003-14.14-9.374-22.626-9.374s-16.627 3.371-22.626 9.374c-6.003 5.999-9.374 14.14-9.374 22.626v338.76l-457.36-457.399c-6.004-6.007-14.149-9.378-22.64-9.378s-16.635 3.371-22.64 9.378c-6.004 6.003-9.378 14.148-9.378 22.639s3.374 16.636 9.378 22.639l457.4 457.361h-338.761c-8.487 0-16.626 3.372-22.627 9.373s-9.373 14.141-9.373 22.627c0 8.487 3.372 16.626 9.373 22.627s14.141 9.373 22.627 9.373h416c8.486 0 16.627-3.372 22.626-9.373 6.003-6.001 9.374-14.141 9.374-22.627z" />
<glyph unicode="&#xe907;" glyph-name="Atom" d="M775.322 448c30.959 42.099 57.626 87.189 79.599 134.6 42.961 95.52 43.998 170.64 3.2 211.52-40.802 40.88-116.002 39.76-211.52-3.2-47.411-21.975-92.501-48.641-134.601-79.6-42.099 30.959-87.189 57.625-134.6 79.6-95.52 42.96-170.64 44-211.52 3.2s-39.76-116 3.2-211.52c21.975-47.411 48.641-92.5 79.6-134.6-30.959-42.099-57.625-87.189-79.6-134.601-42.96-95.518-44-170.641-3.2-211.52 20-19.998 48-29.879 82.52-29.879 36.4 0 80 11.038 129 33.079 47.411 21.973 92.501 48.64 134.6 79.599 42.099-30.959 87.189-57.626 134.601-79.599 48.998-22.042 92.599-33.079 128.998-33.079 34.56 0 62.601 9.958 82.522 29.879 40.922 40.879 39.761 116.002-3.2 211.52-21.973 47.411-48.64 92.501-79.599 134.601zM824 760c37.12-37.12 9.442-145.16-79.198-272-28.459 35.601-58.88 69.588-91.123 101.8-32.171 32.254-66.116 62.688-101.679 91.16 127.002 88.6 235.081 116.32 272 79.040zM715.238 448c-29.47-37.943-61.278-74.014-95.236-108.002-33.98-34.052-70.050-65.954-108.002-95.518-37.952 29.564-74.022 61.466-108 95.518-34.044 33.993-65.945 70.059-95.52 108.002 59.348 75.806 127.689 144.122 203.52 203.44 37.939-29.55 74.010-61.425 108.002-95.44 34.010-33.981 65.873-70.052 95.398-108h-0.162zM200 760c10.72 10.76 27.36 16 48.68 16 52.44 0 133.2-32 223.482-95.24-35.686-28.364-69.739-58.719-102.002-90.92-32.245-32.225-62.666-66.226-91.12-101.84-88.64 126.999-116.32 235.040-79.040 272zM200 136c-37.12 37.12-9.4 145.161 79.2 272 28.456-35.601 58.876-69.589 91.12-101.798 32.172-32.256 66.117-62.69 101.68-91.162-127-88.64-235.040-116.322-272-79.040zM824 136c-37.12-37.12-145.161-9.399-272 79.241 35.614 28.429 69.598 58.837 101.798 91.081 32.256 32.171 62.69 66.116 91.162 101.679 88.64-127.002 116.322-235.042 79.040-272zM552 448c0-7.91-2.347-15.646-6.741-22.225-4.395-6.575-10.641-11.703-17.95-14.729-7.309-3.029-15.351-3.823-23.113-2.278s-14.886 5.355-20.48 10.948c-5.594 5.594-9.404 12.719-10.948 20.48s-0.751 15.804 2.278 23.113c3.025 7.309 8.154 13.555 14.733 17.95 6.575 4.395 14.31 6.741 22.221 6.741 10.607 0 20.783-4.215 28.284-11.716s11.716-17.677 11.716-28.284z" />
<glyph unicode="&#xe908;" glyph-name="Barcode" d="M920 768v-160c0-6.365-2.53-12.47-7.031-16.971-4.497-4.501-10.603-7.029-16.969-7.029s-12.471 2.528-16.969 7.029c-4.501 4.501-7.031 10.606-7.031 16.971v136h-136c-6.366 0-12.471 2.528-16.969 7.029-4.501 4.501-7.031 10.606-7.031 16.971s2.53 12.47 7.031 16.971c4.497 4.501 10.603 7.029 16.969 7.029h160c6.366 0 12.471-2.528 16.969-7.029 4.501-4.501 7.031-10.606 7.031-16.971zM288 152h-136v136c0 6.366-2.528 12.471-7.029 16.969-4.501 4.501-10.606 7.031-16.971 7.031s-12.47-2.53-16.971-7.031c-4.501-4.497-7.029-10.603-7.029-16.969v-160c0-6.366 2.528-12.471 7.029-16.969 4.501-4.501 10.606-7.031 16.971-7.031h160c6.365 0 12.47 2.53 16.971 7.031 4.501 4.497 7.029 10.603 7.029 16.969s-2.528 12.471-7.029 16.969c-4.501 4.501-10.606 7.031-16.971 7.031zM896 312c-6.366 0-12.471-2.53-16.969-7.031-4.501-4.497-7.031-10.603-7.031-16.969v-136h-136c-6.366 0-12.471-2.53-16.969-7.031-4.501-4.497-7.031-10.603-7.031-16.969s2.53-12.471 7.031-16.969c4.497-4.501 10.603-7.031 16.969-7.031h160c6.366 0 12.471 2.53 16.969 7.031 4.501 4.497 7.031 10.603 7.031 16.969v160c0 6.366-2.53 12.471-7.031 16.969-4.497 4.501-10.603 7.031-16.969 7.031zM128 584c6.365 0 12.47 2.528 16.971 7.029s7.029 10.606 7.029 16.971v136h136c6.365 0 12.47 2.528 16.971 7.029s7.029 10.606 7.029 16.971c0 6.365-2.528 12.47-7.029 16.971s-10.606 7.029-16.971 7.029h-160c-6.365 0-12.47-2.528-16.971-7.029s-7.029-10.606-7.029-16.971v-160c0-6.365 2.528-12.47 7.029-16.971s10.606-7.029 16.971-7.029zM320 632c-6.365 0-12.47-2.528-16.971-7.029s-7.029-10.606-7.029-16.971v-320c0-6.366 2.528-12.471 7.029-16.969 4.501-4.501 10.606-7.031 16.971-7.031s12.47 2.53 16.971 7.031c4.501 4.497 7.029 10.603 7.029 16.969v320c0 6.365-2.528 12.47-7.029 16.971s-10.606 7.029-16.971 7.029zM728 288v320c0 6.365-2.53 12.47-7.031 16.971-4.497 4.501-10.603 7.029-16.969 7.029s-12.471-2.528-16.969-7.029c-4.501-4.501-7.031-10.606-7.031-16.971v-320c0-6.366 2.53-12.471 7.031-16.969 4.497-4.501 10.603-7.031 16.969-7.031s12.471 2.53 16.969 7.031c4.501 4.497 7.031 10.603 7.031 16.969zM576 632c-6.366 0-12.471-2.528-16.969-7.029-4.501-4.501-7.031-10.606-7.031-16.971v-320c0-6.366 2.53-12.471 7.031-16.969 4.497-4.501 10.603-7.031 16.969-7.031s12.471 2.53 16.969 7.031c4.501 4.497 7.031 10.603 7.031 16.969v320c0 6.365-2.53 12.47-7.031 16.971-4.497 4.501-10.603 7.029-16.969 7.029zM448 632c-6.366 0-12.471-2.528-16.969-7.029-4.503-4.501-7.031-10.606-7.031-16.971v-320c0-6.366 2.528-12.471 7.031-16.969 4.497-4.501 10.603-7.031 16.969-7.031s12.471 2.53 16.969 7.031c4.501 4.497 7.031 10.603 7.031 16.969v320c0 6.365-2.53 12.47-7.031 16.971-4.497 4.501-10.603 7.029-16.969 7.029z" />
<glyph unicode="&#xe909;" glyph-name="BellSimple" d="M664 64c0-6.366-2.53-12.471-7.031-16.969-4.497-4.501-10.603-7.031-16.969-7.031h-256c-6.365 0-12.47 2.53-16.971 7.031-4.501 4.497-7.029 10.603-7.029 16.969s2.528 12.471 7.029 16.969c4.501 4.501 10.606 7.031 16.971 7.031h256c6.366 0 12.471-2.53 16.969-7.031 4.501-4.497 7.031-10.603 7.031-16.969zM880.439 196.002c-4.851-8.546-11.895-15.646-20.403-20.565-8.503-4.924-18.167-7.488-27.998-7.437h-640.038c-9.844 0.021-19.508 2.637-28.019 7.582s-15.568 12.049-20.459 20.591c-4.892 8.542-7.445 18.223-7.404 28.066s2.677 19.499 7.642 28.002c22.6 38.959 56.24 148.8 56.24 291.759 0 82.748 32.871 162.106 91.383 220.617s137.87 91.383 220.617 91.383c82.748 0 162.108-32.871 220.617-91.383 58.513-58.511 91.383-137.87 91.383-220.617 0-142.921 33.681-252.8 56.32-291.759 5.018-8.516 7.676-18.219 7.697-28.105 0.017-9.886-2.594-19.597-7.578-28.134zM838.801 228.002c-30.281 51.998-62.801 173.278-62.801 315.998 0 70.017-27.814 137.167-77.325 186.676s-116.659 77.324-186.675 77.324c-70.016 0-137.167-27.814-186.676-77.324s-77.324-116.659-77.324-186.676c0-142.758-32.56-264-62.84-315.998-0.702-1.22-1.072-2.598-1.072-4.002s0.369-2.782 1.072-4.002c0.659-1.225 1.641-2.244 2.84-2.948 1.199-0.708 2.569-1.071 3.959-1.050h640.040c1.391-0.021 2.761 0.341 3.959 1.050 1.199 0.704 2.18 1.724 2.842 2.948 0.7 1.22 1.071 2.598 1.071 4.002s-0.371 2.782-1.071 4.002z" />
<glyph unicode="&#xe90a;" glyph-name="BoundingBox" d="M832 584c14.852 0 29.094 5.9 39.599 16.402 10.5 10.502 16.401 24.746 16.401 39.598v128c0 14.852-5.901 29.096-16.401 39.598-10.505 10.502-24.747 16.402-39.599 16.402h-128c-14.852 0-29.094-5.9-39.599-16.402-10.5-10.502-16.401-24.746-16.401-39.598v-40h-272v40c0 14.852-5.9 29.096-16.402 39.598s-24.746 16.402-39.598 16.402h-128c-14.852 0-29.096-5.9-39.598-16.402s-16.402-24.746-16.402-39.598v-128c0-14.852 5.9-29.096 16.402-39.598s24.746-16.402 39.598-16.402h40v-272h-40c-14.852 0-29.096-5.901-39.598-16.401-10.502-10.505-16.402-24.747-16.402-39.599v-128c0-14.852 5.9-29.094 16.402-39.599 10.502-10.5 24.746-16.401 39.598-16.401h128c14.852 0 29.096 5.901 39.598 16.401 10.502 10.505 16.402 24.747 16.402 39.599v40h272v-40c0-14.852 5.901-29.094 16.401-39.599 10.505-10.5 24.747-16.401 39.599-16.401h128c14.852 0 29.094 5.901 39.599 16.401 10.5 10.505 16.401 24.747 16.401 39.599v128c0 14.852-5.901 29.094-16.401 39.599-10.505 10.5-24.747 16.401-39.599 16.401h-40v272h40zM696 768c0 2.122 0.845 4.157 2.342 5.657 1.502 1.501 3.537 2.343 5.658 2.343h128c2.121 0 4.156-0.843 5.658-2.343 1.498-1.5 2.342-3.535 2.342-5.657v-128c0-2.122-0.845-4.157-2.342-5.657-1.502-1.501-3.537-2.343-5.658-2.343h-128c-2.121 0-4.156 0.843-5.658 2.343-1.498 1.5-2.342 3.535-2.342 5.657v128zM184 640v128c0 2.122 0.843 4.157 2.343 5.657s3.535 2.343 5.657 2.343h128c2.122 0 4.157-0.843 5.657-2.343s2.343-3.535 2.343-5.657v-128c0-2.122-0.843-4.157-2.343-5.657s-3.535-2.343-5.657-2.343h-128c-2.122 0-4.157 0.843-5.657 2.343s-2.343 3.535-2.343 5.657zM328 128c0-2.121-0.843-4.156-2.343-5.658-1.5-1.498-3.535-2.342-5.657-2.342h-128c-2.122 0-4.157 0.845-5.657 2.342-1.501 1.502-2.343 3.537-2.343 5.658v128c0 2.121 0.843 4.156 2.343 5.658 1.5 1.498 3.535 2.342 5.657 2.342h128c2.122 0 4.157-0.845 5.657-2.342 1.501-1.502 2.343-3.537 2.343-5.658v-128zM840 256v-128c0-2.121-0.845-4.156-2.342-5.658-1.502-1.498-3.537-2.342-5.658-2.342h-128c-2.121 0-4.156 0.845-5.658 2.342-1.498 1.502-2.342 3.537-2.342 5.658v128c0 2.121 0.845 4.156 2.342 5.658 1.502 1.498 3.537 2.342 5.658 2.342h128c2.121 0 4.156-0.845 5.658-2.342 1.498-1.502 2.342-3.537 2.342-5.658zM744 312h-40c-14.852 0-29.094-5.901-39.599-16.401-10.5-10.505-16.401-24.747-16.401-39.599v-40h-272v40c0 14.852-5.9 29.094-16.402 39.599-10.502 10.5-24.746 16.401-39.598 16.401h-40v272h40c14.852 0 29.096 5.9 39.598 16.402s16.402 24.746 16.402 39.598v40h272v-40c0-14.852 5.901-29.096 16.401-39.598 10.505-10.502 24.747-16.402 39.599-16.402h40v-272z" />
<glyph unicode="&#xe90b;" glyph-name="CalendarBlank" d="M828.207 821.076h-96v32c0 8.487-3.371 16.626-9.374 22.627-5.999 6.001-14.14 9.373-22.626 9.373s-16.627-3.372-22.626-9.373c-6.003-6.001-9.374-14.141-9.374-22.627v-32h-320v32c0 8.487-3.372 16.626-9.373 22.627s-14.141 9.373-22.627 9.373c-8.487 0-16.626-3.372-22.627-9.373s-9.373-14.141-9.373-22.627v-32h-96c-16.974 0-33.253-6.743-45.255-18.745s-18.745-28.281-18.745-45.255v-639.998c0-16.977 6.743-33.254 18.745-45.257s28.281-18.743 45.255-18.743h640c16.973 0 33.25 6.741 45.252 18.743 12.006 12.002 18.748 28.279 18.748 45.257v639.998c0 16.974-6.741 33.252-18.748 45.255-12.002 12.002-28.279 18.745-45.252 18.745zM284.207 757.076v-32c0-8.487 3.371-16.626 9.373-22.627s14.14-9.373 22.627-9.373c8.487 0 16.626 3.372 22.627 9.373s9.373 14.141 9.373 22.627v32h320v-32c0-8.487 3.371-16.626 9.374-22.627 5.999-6.001 14.14-9.373 22.626-9.373s16.627 3.372 22.626 9.373c6.003 6.001 9.374 14.141 9.374 22.627v32h96v-128h-640v128h96zM828.207 117.077h-640v447.998h640v-447.998z" />
<glyph unicode="&#xe90c;" glyph-name="CaretDown" d="M854.639 553.36l-320-319.999c-2.97-2.978-6.498-5.338-10.385-6.946-3.883-1.613-8.047-2.441-12.254-2.441s-8.371 0.828-12.254 2.441c-3.887 1.609-7.415 3.968-10.385 6.946l-320.001 319.999c-6.004 6.004-9.378 14.149-9.378 22.64s3.374 16.635 9.378 22.64c6.004 6.004 14.148 9.378 22.64 9.378s16.636-3.374 22.64-9.378l297.36-297.4 297.361 297.4c2.974 2.973 6.502 5.332 10.385 6.941 3.887 1.609 8.051 2.438 12.254 2.438s8.367-0.828 12.254-2.438c3.883-1.609 7.411-3.967 10.385-6.941s5.333-6.502 6.942-10.387c1.609-3.884 2.436-8.048 2.436-12.253s-0.828-8.368-2.436-12.253c-1.609-3.885-3.968-7.414-6.942-10.388z" />
<glyph unicode="&#xe90d;" glyph-name="ChatCenteredDots" d="M536.909 496.418c0-7.915-2.347-15.646-6.741-22.225s-10.641-11.703-17.95-14.733c-7.309-3.025-15.351-3.819-23.113-2.274-7.757 1.545-14.886 5.35-20.48 10.948-5.594 5.594-9.404 12.719-10.948 20.48-1.54 7.757-0.751 15.799 2.278 23.108s8.154 13.559 14.733 17.954c6.579 4.394 14.31 6.74 22.221 6.74 10.611 0 20.783-4.214 28.284-11.715 7.505-7.501 11.716-17.677 11.716-28.284zM320.91 536.417c-7.911 0-15.645-2.346-22.223-6.74s-11.705-10.645-14.732-17.954c-3.028-7.309-3.82-15.351-2.276-23.108 1.543-7.761 5.353-14.886 10.947-20.48 5.594-5.598 12.721-9.404 20.48-10.948s15.802-0.751 23.111 2.274c7.309 3.029 13.556 8.154 17.951 14.733s6.741 14.31 6.741 22.225c0 10.607-4.214 20.783-11.716 28.284s-17.676 11.715-28.284 11.715zM672.909 536.417c-7.91 0-15.642-2.346-22.221-6.74s-11.703-10.645-14.733-17.954c-3.029-7.309-3.819-15.351-2.278-23.108 1.545-7.761 5.355-14.886 10.948-20.48 5.594-5.598 12.723-9.404 20.48-10.948 7.761-1.545 15.804-0.751 23.113 2.274 7.309 3.029 13.555 8.154 17.95 14.733s6.741 14.31 6.741 22.225c0 10.607-4.211 20.783-11.716 28.284-7.501 7.501-17.673 11.715-28.284 11.715zM904.909 752.417v-511.999c0-14.852-5.897-29.099-16.401-39.599-10.5-10.505-24.747-16.401-39.599-16.401h-246.357l-57.003-100.002c-4.894-8.58-11.972-15.714-20.514-20.672-8.542-4.962-18.244-7.578-28.126-7.578-9.877 0-19.58 2.615-28.122 7.578-8.542 4.958-15.62 12.092-20.518 20.672l-56.999 100.002h-246.36c-14.852 0-29.096 5.897-39.598 16.401-10.502 10.5-16.402 24.747-16.402 39.599v511.999c0 14.852 5.9 29.096 16.402 39.598s24.746 16.402 39.598 16.402h703.999c14.852 0 29.099-5.9 39.599-16.402 10.505-10.502 16.401-24.746 16.401-39.598zM856.909 752.417c0 2.121-0.841 4.157-2.342 5.657-1.498 1.5-3.533 2.343-5.658 2.343h-703.999c-2.122 0-4.157-0.843-5.657-2.343s-2.343-3.535-2.343-5.657v-511.999c0-2.125 0.843-4.16 2.343-5.658 1.5-1.502 3.535-2.342 5.657-2.342h260.28c4.222 0.009 8.372-1.097 12.032-3.204s6.697-5.141 8.809-8.798l64.001-112c0.695-1.229 1.711-2.253 2.931-2.965 1.225-0.713 2.611-1.088 4.028-1.088s2.803 0.375 4.028 1.088c1.225 0.713 2.236 1.737 2.931 2.965l64 112c2.112 3.657 5.15 6.69 8.811 8.798 3.657 2.108 7.808 3.213 12.032 3.204h260.117c2.125 0 4.16 0.841 5.658 2.342 1.502 1.498 2.342 3.533 2.342 5.658v511.999z" />
<glyph unicode="&#xe90e;" glyph-name="CheckCircle" d="M688.96 560.96c4.493-4.5 7.019-10.6 7.019-16.96s-2.526-12.459-7.019-16.96l-224-224c-4.501-4.493-10.598-7.019-16.96-7.019s-12.459 2.526-16.96 7.019l-96 96c-4.239 4.548-6.547 10.569-6.438 16.785s2.629 12.151 7.026 16.546c4.397 4.399 10.33 6.916 16.547 7.027s12.235-2.197 16.785-6.438l79.040-79.002 207.040 207.002c4.501 4.495 10.598 7.019 16.96 7.019s12.459-2.525 16.96-7.019zM920 448c0-80.695-23.927-159.578-68.762-226.671-44.83-67.098-108.553-119.39-183.104-150.272s-156.587-38.959-235.729-23.219c-79.146 15.744-151.845 54.605-208.905 111.663s-95.918 129.758-111.661 208.9c-15.743 79.147-7.663 161.182 23.217 235.734s83.175 138.273 150.27 183.105c67.095 44.832 145.977 68.76 226.673 68.76 108.169-0.127 211.874-43.153 288.358-119.641 76.489-76.487 119.514-180.19 119.642-288.359zM872 448c0 71.202-21.111 140.803-60.672 200.005-39.556 59.202-95.782 105.344-161.562 132.591-65.783 27.248-138.167 34.377-208 20.486s-133.978-48.177-184.325-98.525c-50.347-50.347-84.634-114.493-98.524-184.325s-6.761-142.217 20.486-208c27.247-65.779 73.39-122.005 132.591-161.562s128.803-60.672 200.005-60.672c95.445 0.107 186.953 38.067 254.443 105.557s105.451 158.997 105.557 254.443z" />
<glyph unicode="&#xe90f;" glyph-name="CrossCircle" d="M655.693 552.977l-111.040-111.040 111.040-111.040c2.359-2.197 4.25-4.847 5.564-7.791 1.31-2.944 2.018-6.123 2.074-9.344s-0.538-6.421-1.745-9.412c-1.207-2.987-3.004-5.705-5.282-7.983s-4.992-4.075-7.983-5.282c-2.987-1.207-6.187-1.801-9.412-1.741-3.221 0.055-6.4 0.759-9.344 2.074-2.944 1.31-5.594 3.2-7.791 5.559l-111.040 111.040-111.038-111.040c-4.55-4.241-10.567-6.545-16.785-6.438-6.218 0.111-12.15 2.628-16.547 7.027s-6.916 10.33-7.026 16.546c-0.11 6.217 2.198 12.237 6.438 16.785l111.038 111.040-111.038 111.040c-4.239 4.55-6.547 10.567-6.438 16.785s2.629 12.15 7.026 16.547c4.397 4.397 10.329 6.916 16.547 7.025s12.235-2.198 16.785-6.438l111.038-111.040 111.040 111.040c4.553 4.239 10.569 6.547 16.785 6.438 6.221-0.11 12.151-2.628 16.55-7.025 4.395-4.397 6.916-10.33 7.023-16.547 0.111-6.217-2.197-12.235-6.438-16.785zM918.733 441.937c0-80.695-23.927-159.578-68.757-226.671-44.834-67.098-108.553-119.39-183.104-150.272-74.556-30.882-156.591-38.959-235.733-23.215-79.145 15.74-151.843 54.601-208.903 111.659s-95.918 129.758-111.661 208.905c-15.743 79.142-7.663 161.178 23.217 235.73s83.175 138.273 150.27 183.105c67.095 44.832 145.98 68.76 226.671 68.76 108.173-0.127 211.874-43.153 288.363-119.641 76.484-76.487 119.514-180.19 119.637-288.36zM870.733 441.937c0 71.202-21.111 140.804-60.668 200.006-39.561 59.202-95.782 105.344-161.566 132.591-65.779 27.248-138.163 34.377-207.996 20.486-69.835-13.891-133.981-48.177-184.327-98.525s-84.634-114.493-98.524-184.325c-13.891-69.833-6.762-142.217 20.486-208 27.247-65.779 73.39-122.005 132.591-161.562s128.806-60.672 200.003-60.672c95.445 0.107 186.953 38.067 254.443 105.557s105.455 158.997 105.557 254.443z" />
<glyph unicode="&#xe910;" glyph-name="Envelope" d="M882.057 765.914h-767.998c-6.365 0-12.47-2.528-16.971-7.029s-7.029-10.605-7.029-16.971v-544c0-14.852 5.9-29.094 16.402-39.599 10.502-10.5 24.746-16.401 39.598-16.401h703.998c14.852 0 29.099 5.901 39.599 16.401 10.505 10.505 16.401 24.747 16.401 39.599v544c0 6.365-2.526 12.47-7.027 16.971s-10.607 7.029-16.973 7.029zM498.057 422.473l-322.318 295.441h644.639l-322.321-295.441zM392.739 453.914l-254.68-233.438v466.878l254.68-233.44zM428.258 421.355l53.798-49.122c4.425-4.045 10.206-6.289 16.201-6.289 5.999 0 11.776 2.244 16.201 6.289l53.602 49.122 252.318-231.441h-644.599l252.48 231.441zM603.379 453.914l254.677 233.44v-466.878l-254.677 233.438z" />
<glyph unicode="&#xe911;" glyph-name="InstagramLogo" d="M503.467 643.418c-36.39 0-71.966-10.791-102.225-31.010s-53.842-48.955-67.769-82.578c-13.926-33.621-17.57-70.618-10.47-106.308 7.1-35.695 24.624-68.48 50.357-94.212s58.517-43.255 94.212-50.355c35.691-7.1 72.687-3.456 106.308 10.47s62.362 37.508 82.577 67.767c20.22 30.259 31.010 65.835 31.010 102.225-0.064 48.781-19.469 95.545-53.961 130.038-34.496 34.493-81.259 53.899-130.039 53.963zM503.467 323.418c-26.897 0-53.193 7.979-75.558 22.921-22.364 14.942-39.796 36.186-50.089 61.035s-12.987 52.194-7.739 78.579c5.248 26.381 18.2 50.612 37.22 69.632s43.251 31.973 69.636 37.22c26.381 5.248 53.726 2.554 78.575-7.739s46.093-27.725 61.035-50.090c14.946-22.365 22.921-48.661 22.921-75.558 0-36.070-14.327-70.66-39.834-96.166s-60.096-39.834-96.166-39.834zM695.467 867.418h-384c-57.267-0.064-112.171-22.841-152.665-63.335s-63.272-95.398-63.335-152.665v-384c0.064-57.267 22.841-112.171 63.335-152.666s95.398-63.27 152.665-63.334h384c57.267 0.064 112.171 22.839 152.666 63.334s63.27 95.398 63.334 152.666v384c-0.064 57.267-22.839 112.171-63.334 152.665s-95.398 63.272-152.666 63.335zM863.467 267.418c0-44.557-17.698-87.287-49.207-118.793-31.505-31.505-74.236-49.207-118.793-49.207h-384c-44.556 0-87.288 17.702-118.794 49.207s-49.206 74.236-49.206 118.793v384c0 44.556 17.7 87.288 49.206 118.794s74.237 49.206 118.794 49.206h384c44.557 0 87.287-17.7 118.793-49.206 31.509-31.506 49.207-74.237 49.207-118.794v-384zM751.467 667.418c0-7.911-2.347-15.645-6.741-22.223s-10.641-11.705-17.95-14.732c-7.309-3.028-15.351-3.82-23.113-2.276s-14.886 5.353-20.48 10.947c-5.594 5.594-9.404 12.721-10.948 20.48s-0.751 15.802 2.278 23.111c3.025 7.309 8.154 13.556 14.733 17.952 6.575 4.396 14.31 6.741 22.221 6.741 10.607 0 20.783-4.214 28.284-11.716s11.716-17.676 11.716-28.284z" />
<glyph unicode="&#xe912;" glyph-name="LinkedinLogo" d="M849.348 842.936h-704.002c-14.852 0-29.096-5.9-39.598-16.402s-16.402-24.746-16.402-39.598v-704.001c0-14.852 5.9-29.094 16.402-39.599 10.502-10.5 24.746-16.401 39.598-16.401h704.002c14.852 0 29.094 5.901 39.595 16.401 10.505 10.505 16.405 24.747 16.405 39.599v704.001c0 14.852-5.901 29.096-16.405 39.598-10.5 10.502-24.742 16.402-39.595 16.402zM857.348 82.935c0-2.121-0.845-4.156-2.347-5.658-1.498-1.498-3.533-2.342-5.653-2.342h-704.002c-2.122 0-4.157 0.845-5.657 2.342-1.5 1.502-2.343 3.537-2.343 5.658v704.001c0 2.122 0.843 4.157 2.343 5.657s3.535 2.343 5.657 2.343h704.002c2.121 0 4.156-0.843 5.653-2.343 1.502-1.5 2.347-3.535 2.347-5.657v-704.001zM361.347 498.935v-256c0-6.366-2.529-12.467-7.030-16.969s-10.605-7.031-16.97-7.031c-6.365 0-12.47 2.53-16.971 7.031s-7.029 10.603-7.029 16.969v256c0 6.366 2.528 12.471 7.029 16.973s10.605 7.027 16.971 7.027c6.365 0 12.469-2.526 16.97-7.027s7.030-10.607 7.030-16.973zM713.348 386.935v-144c0-6.366-2.53-12.467-7.031-16.969s-10.607-7.031-16.969-7.031c-6.366 0-12.471 2.53-16.973 7.031s-7.027 10.603-7.027 16.969v144c0 23.339-9.271 45.722-25.775 62.225s-38.886 25.775-62.225 25.775c-23.343 0-45.726-9.271-62.229-25.775-16.499-16.503-25.771-38.886-25.771-62.225v-144c0-6.366-2.53-12.467-7.031-16.969s-10.607-7.031-16.969-7.031c-6.366 0-12.471 2.53-16.973 7.031s-7.027 10.603-7.027 16.969v256c0 6.366 2.526 12.471 7.027 16.973s10.607 7.027 16.973 7.027c6.362 0 12.467-2.526 16.969-7.027s7.031-10.607 7.031-16.973v-8.439c19.776 16.785 43.942 27.563 69.649 31.066 25.702 3.499 51.874-0.427 75.422-11.311 23.548-10.889 43.49-28.279 57.472-50.129 13.986-21.85 21.431-47.245 21.457-73.186zM377.347 610.936c0-7.911-2.346-15.645-6.741-22.223s-10.642-11.705-17.952-14.732c-7.309-3.028-15.351-3.82-23.111-2.276s-14.887 5.353-20.481 10.947c-5.594 5.594-9.404 12.721-10.947 20.481s-0.751 15.802 2.276 23.111c3.028 7.309 8.154 13.556 14.732 17.952s14.312 6.741 22.223 6.741c10.609 0 20.783-4.214 28.284-11.716s11.716-17.676 11.716-28.284z" />
<glyph unicode="&#xe913;" glyph-name="MapPinSimple" d="M718.327 657.894c0.004 41.698-12.062 82.506-34.739 117.498-22.682 34.992-55.002 62.672-93.065 79.698s-80.243 22.671-121.446 16.253c-41.199-6.418-79.662-24.625-110.743-52.422s-53.452-63.997-64.413-104.228c-10.96-40.232-10.042-82.776 2.646-122.498s36.601-74.921 68.853-101.349c32.253-26.432 71.465-42.957 112.908-47.59v-425.361c0-6.366 2.526-12.471 7.027-16.973 4.501-4.497 10.607-7.027 16.973-7.027 6.362 0 12.467 2.53 16.969 7.027 4.501 4.501 7.031 10.607 7.031 16.973v425.361c52.77 5.961 101.508 31.134 136.917 70.716 35.409 39.584 55.014 90.813 55.083 143.923zM502.327 489.894c-33.229 0-65.711 9.852-93.338 28.314-27.628 18.459-49.161 44.697-61.876 75.395s-16.043 64.477-9.56 97.066c6.482 32.589 22.483 62.523 45.978 86.019s53.431 39.496 86.019 45.978c32.589 6.482 66.368 3.156 97.067-9.56s56.934-34.249 75.396-61.876c18.458-27.628 28.314-60.109 28.314-93.336 0-44.556-17.702-87.288-49.207-118.794-31.505-31.508-74.24-49.206-118.793-49.206z" />
<glyph unicode="&#xe914;" glyph-name="Menu" d="M888 448c0-6.366-2.53-12.471-7.031-16.969-4.497-4.501-10.603-7.031-16.969-7.031h-704c-6.365 0-12.47 2.53-16.971 7.031-4.501 4.497-7.029 10.603-7.029 16.969s2.528 12.471 7.029 16.969c4.501 4.501 10.606 7.031 16.971 7.031h704c6.366 0 12.471-2.53 16.969-7.031 4.501-4.497 7.031-10.603 7.031-16.969zM160 680h704c6.366 0 12.471 2.528 16.969 7.029 4.501 4.501 7.031 10.606 7.031 16.971s-2.53 12.47-7.031 16.971c-4.497 4.501-10.603 7.029-16.969 7.029h-704c-6.365 0-12.47-2.528-16.971-7.029s-7.029-10.606-7.029-16.971c0-6.365 2.528-12.47 7.029-16.971s10.606-7.029 16.971-7.029zM864 216h-704c-6.365 0-12.47-2.53-16.971-7.031-4.501-4.497-7.029-10.603-7.029-16.969s2.528-12.471 7.029-16.969c4.501-4.501 10.606-7.031 16.971-7.031h704c6.366 0 12.471 2.53 16.969 7.031 4.501 4.497 7.031 10.603 7.031 16.969s-2.53 12.471-7.031 16.969c-4.497 4.501-10.603 7.031-16.969 7.031z" />
<glyph unicode="&#xe915;" glyph-name="PhoneOutgoing" d="M578.082 515.721c-4.493 4.501-7.019 10.598-7.019 16.96 0 6.359 2.526 12.46 7.019 16.96l151.040 151.040h-102.080c-6.366 0-12.467 2.528-16.969 7.029s-7.031 10.605-7.031 16.971c0 6.365 2.53 12.47 7.031 16.971s10.603 7.029 16.969 7.029h160c6.366 0 12.471-2.529 16.973-7.029s7.027-10.606 7.027-16.971v-160c0-6.365-2.526-12.47-7.027-16.971s-10.607-7.029-16.973-7.029c-6.366 0-12.467 2.528-16.969 7.029s-7.031 10.605-7.031 16.971v102.080l-151.040-151.040c-4.497-4.493-10.598-7.019-16.96-7.019-6.357 0-12.459 2.526-16.96 7.019zM874.603 217.361c-6.878-52.267-32.55-100.245-72.222-134.967-39.667-34.722-90.62-53.815-143.339-53.713-313.199 0-567.999 254.801-567.999 568-0.11 52.721 18.981 103.677 53.705 143.348s82.704 65.34 134.975 72.212c12.027 1.465 24.205-1.010 34.706-7.054s18.759-15.331 23.534-26.466l84.4-188.44c3.72-8.524 5.259-17.84 4.474-27.107-0.781-9.267-3.858-18.193-8.954-25.973-0.514-0.805-1.075-1.58-1.68-2.32l-84.28-100c-0.512-1.045-0.779-2.197-0.779-3.358 0-1.165 0.266-2.317 0.779-3.362 30.64-62.72 96.399-128 160.002-158.601 1.058-0.482 2.219-0.713 3.388-0.674 1.165 0.043 2.304 0.354 3.332 0.913l98.756 84.002c0.708 0.614 1.455 1.173 2.24 1.681 7.753 5.167 16.67 8.316 25.941 9.169 9.276 0.853 18.62-0.623 27.179-4.292l188.962-84.676c11.029-4.885 20.19-13.201 26.116-23.706 5.922-10.509 8.294-22.652 6.763-34.615zM827.042 223.398c0.137 1.673-0.26 3.345-1.126 4.783-0.87 1.434-2.167 2.56-3.712 3.217l-189.001 84.681c-1.033 0.401-2.138 0.572-3.243 0.499-1.105-0.068-2.18-0.375-3.157-0.896l-98.718-84.002c-0.721-0.602-1.481-1.161-2.24-1.681-8.055-5.367-17.361-8.559-27.017-9.259-9.651-0.704-19.319 1.109-28.066 5.261-73.439 35.477-146.639 107.998-182.119 180.757-4.173 8.695-6.031 18.317-5.393 27.938s3.749 18.918 9.033 26.982c0.515 0.802 1.090 1.566 1.72 2.283l84.2 100.358c0.481 1.048 0.731 2.187 0.731 3.34s-0.25 2.292-0.731 3.34l-84.2 188.44c-0.556 1.513-1.556 2.824-2.87 3.759s-2.878 1.452-4.49 1.482h-0.92c-40.686-5.404-78.013-25.435-105.006-56.352s-41.807-70.605-41.674-111.648c0-286.72 233.28-520 519.999-520 41.050-0.124 80.734 14.699 111.65 41.698s50.948 64.333 56.35 105.020z" />
<glyph unicode="&#xe916;" glyph-name="PinterestLogo" d="M883.938 500.877c0-88.196-30.797-168.759-86.72-226.918-51.998-54.080-122.441-85.082-193.28-85.082-77.679 0-126.199 28.284-154.517 54.562l-46.121-196.002c-1.228-5.274-4.204-9.98-8.445-13.35-4.241-3.366-9.498-5.205-14.915-5.21-1.845 0-3.685 0.213-5.48 0.64-6.194 1.455-11.558 5.312-14.911 10.722-3.353 5.406-4.421 11.925-2.969 18.121l127.999 543.999c0.661 3.127 1.941 6.091 3.763 8.717s4.151 4.862 6.848 6.576c2.697 1.714 5.713 2.872 8.862 3.406 3.153 0.534 6.379 0.433 9.489-0.297 3.115-0.73 6.046-2.074 8.631-3.953s4.77-4.256 6.426-6.991c1.651-2.735 2.743-5.773 3.209-8.935s0.29-6.385-0.508-9.481l-68.361-290.522c11.2-17.318 49.843-64 141.001-64 114.039 0 232 98.761 232 264-0.013 45.396-10.47 90.178-30.558 130.886-20.083 40.708-49.267 76.25-85.282 103.878-36.019 27.629-77.909 46.603-122.432 55.456-44.518 8.853-90.483 7.347-134.332-4.4-43.846-11.748-84.404-33.423-118.536-63.349s-60.925-67.302-78.304-109.237c-17.38-41.935-24.882-87.305-21.927-132.605 2.956-45.295 16.29-89.306 38.972-128.627 1.644-2.731 2.729-5.764 3.188-8.917 0.46-3.157 0.286-6.374-0.511-9.459-0.797-3.089-2.201-5.986-4.13-8.525s-4.345-4.668-7.107-6.263c-2.761-1.591-5.812-2.62-8.975-3.021-3.163-0.405-6.375-0.171-9.447 0.683s-5.944 2.308-8.447 4.284c-2.503 1.975-4.588 4.429-6.132 7.219-26.366 45.696-41.868 96.845-45.308 149.491s5.277 105.377 25.473 154.116c20.197 48.739 51.333 92.18 91.002 126.962s86.805 59.975 137.764 73.629c50.961 13.654 104.38 15.404 156.126 5.113s100.429-32.344 142.289-64.457c41.856-32.113 75.772-73.423 99.11-120.736 23.343-47.313 35.49-99.361 35.503-152.121z" />
<glyph unicode="&#xe917;" glyph-name="Play" d="M919.283 487.829l-576.318 352.559c-9.716 5.95-20.845 9.198-32.237 9.409s-22.633-2.623-32.563-8.209c-9.836-5.499-18.029-13.519-23.738-23.235s-8.726-20.777-8.742-32.045v-705.041c0.074-16.9 6.857-33.084 18.859-44.988s28.238-18.556 45.141-18.492c11.798 0.004 23.367 3.26 33.44 9.399l576.158 352.563c9.263 5.645 16.917 13.577 22.229 23.031 5.308 9.455 8.098 20.122 8.098 30.967s-2.79 21.508-8.098 30.967c-5.312 9.455-12.966 17.387-22.229 23.031v0.081zM309.685 82.027v703.762l575.32-352.001-575.32-351.761z" />
<glyph unicode="&#xe918;" glyph-name="User" d="M903.253 120.738c-60.919 105.323-154.799 180.843-264.363 216.64 54.195 32.265 96.299 81.421 119.851 139.93s27.243 123.128 10.513 183.938c-16.73 60.81-52.958 114.447-103.121 152.673-50.167 38.227-111.492 58.93-174.562 58.93s-124.393-20.703-174.557-58.93c-50.164-38.227-86.393-91.863-103.124-152.673s-13.036-125.43 10.514-183.938c23.55-58.509 65.655-107.665 119.849-139.93-109.56-35.759-203.44-111.279-264.36-216.64-2.234-3.639-3.716-7.693-4.358-11.917-0.642-4.228-0.432-8.538 0.619-12.681 1.051-4.139 2.921-8.030 5.499-11.439 2.578-3.405 5.813-6.263 9.513-8.401s7.791-3.511 12.031-4.041c4.24-0.533 8.544-0.209 12.657 0.951s7.952 3.132 11.29 5.798c3.339 2.667 6.109 5.973 8.148 9.728 75.36 130.24 208.56 208 356.279 208 147.721 0 280.922-77.76 356.279-208 2.039-3.755 4.813-7.061 8.149-9.728 3.341-2.667 7.181-4.638 11.294-5.798 4.109-1.161 8.414-1.485 12.655-0.951 4.241 0.529 8.329 1.903 12.032 4.041 3.699 2.138 6.933 4.996 9.51 8.401 2.581 3.409 4.45 7.3 5.5 11.439 1.050 4.143 1.263 8.452 0.619 12.681-0.64 4.224-2.125 8.277-4.356 11.917zM267.572 584.74c0 44.303 13.137 87.611 37.751 124.448s59.597 65.547 100.528 82.501c40.932 16.954 85.971 21.39 129.423 12.747s83.362-29.977 114.688-61.304c31.33-31.327 52.663-71.24 61.308-114.692 8.64-43.452 4.207-88.491-12.749-129.42-16.956-40.934-45.666-75.917-82.5-100.531-36.838-24.61-80.145-37.751-124.45-37.751-59.388 0.064-116.326 23.684-158.32 65.681-41.994 41.993-65.615 98.931-65.679 158.321z" />
<glyph unicode="&#xe919;" glyph-name="X" d="M796.71 183.164c2.355-2.197 4.245-4.847 5.559-7.791 1.31-2.944 2.018-6.123 2.074-9.344 0.055-3.226-0.538-6.426-1.745-9.412-1.203-2.991-3.004-5.705-5.282-7.983s-4.992-4.075-7.979-5.282c-2.991-1.207-6.191-1.801-9.412-1.745-3.226 0.060-6.404 0.764-9.348 2.074-2.944 1.314-5.594 3.204-7.787 5.564l-271.040 270.997-271.042-270.997c-4.55-4.241-10.567-6.549-16.785-6.438s-12.15 2.628-16.547 7.027c-4.397 4.395-6.916 10.33-7.026 16.546s2.198 12.233 6.438 16.785l270.999 271.040-270.999 271.039c-4.239 4.55-6.547 10.567-6.438 16.785s2.629 12.15 7.026 16.547c4.397 4.397 10.329 6.916 16.547 7.025s12.235-2.198 16.785-6.438l271.042-271.001 271.040 271.001c4.548 4.239 10.564 6.547 16.781 6.438 6.221-0.11 12.151-2.628 16.55-7.025 4.395-4.397 6.916-10.33 7.023-16.547 0.111-6.218-2.197-12.235-6.434-16.785l-271.002-271.039 271.002-271.040z" />
<glyph unicode="&#xe91a;" glyph-name="XLogo" d="M837.585 105.527l-253.679 398.639 251.2 276.48c2.441 2.267 4.386 5.018 5.709 8.077 1.318 3.059 1.988 6.36 1.963 9.692s-0.742 6.622-2.108 9.662c-1.365 3.039-3.349 5.76-5.828 7.991-2.475 2.23-5.389 3.921-8.55 4.963-3.166 1.043-6.515 1.415-9.83 1.093s-6.528-1.331-9.434-2.963c-2.906-1.632-5.44-3.851-7.441-6.516l-242.24-266.48-167.6 263.36c-2.181 3.429-5.197 6.248-8.765 8.193s-7.572 2.952-11.636 2.927h-192c-4.3-0.002-8.519-1.158-12.218-3.349s-6.742-5.335-8.811-9.104c-2.068-3.769-3.086-8.024-2.947-12.321s1.429-8.478 3.736-12.105l253.68-398.64-251.2-276.48c-3.599-4.796-5.274-10.761-4.695-16.73 0.579-5.965 3.37-11.499 7.824-15.509 4.454-4.015 10.248-6.212 16.242-6.17s11.755 2.33 16.149 6.409l242.24 266.479 167.599-263.36c2.18-3.426 5.197-6.246 8.768-8.192 3.567-1.946 7.569-2.953 11.635-2.927h192c4.297 0.004 8.516 1.161 12.215 3.349 3.699 2.193 6.741 5.333 8.811 9.105 2.069 3.767 3.089 8.021 2.948 12.322-0.137 4.297-1.429 8.478-3.738 12.105zM638.507 116.646l-417.44 656h135.12l417.441-656h-135.121z" />
</font>
</defs>
</svg>
